<svg version="1.2" xmlns="http://www.w3.org/2000/svg" viewBox="0 0 578 578" width="578" height="578"><style>.a{fill:#f2f2f2}.b{fill:#ccc}.c{fill:#3f3d56}.d{fill:#2f2e41}.e{fill:#18d26e}.f{fill:#e6e6e6}.g{fill:#a0616a}.h{opacity:.2}</style><path class="a" d="m578 289c0 16.9-1.4 33.7-4.4 50.4-2.9 16.6-7.3 33-13.1 48.8-5.8 15.9-13 31.2-21.4 45.8-8.5 14.6-18.3 28.4-29.2 41.3q-2.4 2.9-4.9 5.7-7.3 8.2-15.2 15.8-7.9 7.7-16.4 14.7-8.5 7.1-17.5 13.4-8.9 6.4-18.4 12.1-8.6 5.2-17.7 9.8-0.9 0.4-1.8 0.9-1.1 0.5-2.2 1.1-5.8 2.8-11.6 5.3-5.8 2.6-11.8 4.8-5.9 2.3-12 4.3-6 2.1-12.2 3.8-2.5 0.7-5.1 1.4-8 2.1-16.2 3.8-8.2 1.7-16.4 2.8-8.3 1.2-16.6 1.9-8.3 0.8-16.6 1-1.8 0-3.4 0.1-0.6 0-1.2 0-1.8 0-3.7 0-8.8 0-17.5-0.5-8.8-0.5-17.5-1.6-8.7-1.1-17.4-2.6-8.6-1.6-17.1-3.7-3.5-0.9-6.8-1.8-4.5-1.2-8.9-2.6-4.5-1.3-8.8-2.8-4.4-1.6-8.7-3.2-4.4-1.6-8.6-3.4-9-3.8-17.7-8.1-2-1-3.9-2-0.8-0.4-1.6-0.9-11.6-6.1-22.5-13.2-11-7.1-21.2-15.1-10.3-8.1-19.8-17-9.5-9-18.2-18.7-2.4-2.7-4.7-5.5c-25.5-30.2-44.5-65.4-55.9-103.3-11.4-37.8-14.8-77.7-10.2-117 4.7-39.3 17.3-77.2 37.2-111.4 19.9-34.2 46.6-63.9 78.5-87.4q2.4-1.8 4.9-3.5 0.5-0.4 1-0.7 11-7.7 22.7-14.4 11.6-6.6 23.8-12.1 12.2-5.5 24.9-9.9 12.7-4.3 25.7-7.5 3-0.7 6-1.4 14.1-3 28.4-4.7 14.4-1.7 28.8-2 14.5-0.2 28.9 1 14.4 1.1 28.6 3.7 3 0.6 5.9 1.2 12.9 2.6 25.6 6.5 12.6 3.8 24.8 8.7 12.2 5 23.9 11.1 11.7 6 22.8 13.1 1 0.6 2 1.3 2 1.3 4 2.6c19.6 13.2 37.5 28.7 53.3 46.2 15.8 17.5 29.4 36.9 40.5 57.8 11 20.8 19.5 42.9 25.2 65.8 5.7 22.9 8.6 46.4 8.6 70z"/><path class="b" d="m216 438.5l-92.4 8.2-1 0.1v-394.1q0.5-0.4 1-0.7 7.2-5.1 14.7-9.7 7.6-4.6 15.3-8.7 7.8-4.1 15.8-7.8 8-3.6 16.2-6.8l4.8 65.1 0.4 6 4.7 64.5 1.4 19.9 18.9 261.7z"/><path class="b" d="m444.4 45.3q1 0.6 2 1.3v400.2l-2-0.2-91.3-8.1 0.1-2.3 19-261.7 1.4-19.9 4.7-64.5 0.4-6 4.9-68.2q8 2.7 15.9 6 7.8 3.2 15.4 6.9 7.6 3.7 15 7.8 7.4 4.2 14.5 8.7z"/><path class="b" d="m444.4 45.3v407c0 7.8-5.4 14.1-12 14.1h-296.8c-5.4 0-10.1-4.3-11.5-10.3q-0.1-0.5-0.2-0.9-0.1-0.5-0.2-1 0-0.5 0-1-0.1-0.5-0.1-0.9v-400.3q-0.5 0.3-1 0.7-2.5 1.7-4.9 3.5v396.1q-0.1 2.2 0.3 4.3 0.4 2.2 1.2 4.3 0.8 2 2 3.9 1.2 1.9 2.7 3.5 0.8 0.8 1.7 1.5 0.8 0.7 1.8 1.3 1 0.6 2.1 1.1 1 0.4 2.1 0.7 0.5 0.2 1 0.3 0.5 0.1 1 0.1 0.5 0.1 1 0.1 0.5 0.1 1 0h296.8q0.5 0.1 1 0 0.5 0 1-0.1 0.5 0 1-0.1 0.5-0.1 1-0.3c8-2.1 14-10.6 14-20.6v-403.1q-2-1.3-4-2.6-1-0.7-2-1.3z"/><path class="b" d="m120.7 84.1h326.7v6h-326.7z"/><path class="b" d="m220.7 8.1q3-0.7 6-1.4v161.9h-6z"/><path class="b" d="m341.4 4.7q3 0.6 5.9 1.2v162.7h-5.9z"/><path class="b" d="m484.6 436.2h-391.3c-7.1 0-13.9 2.8-18.9 7.9-5.1 5-7.9 11.8-7.9 18.9 0 7.1 2.8 14 7.9 19 5 5 11.8 7.8 18.9 7.8l391.3 0.1q2.9-0.1 5.7-0.7 2.8-0.6 5.4-1.7 2.6-1.2 4.9-2.9 2.3-1.7 4.2-3.9 0.4-0.4 0.8-0.9 0.4-0.6 0.8-1.1 0.4-0.5 0.7-1 0.4-0.6 0.7-1.1 0.2-0.5 0.5-0.9 0.2-0.4 0.4-0.9 0.3-0.4 0.5-0.9 0.2-0.4 0.3-0.9c1.7-4.1 2.3-8.5 1.8-12.8-0.4-4.4-2-8.6-4.4-12.2-2.5-3.6-5.8-6.6-9.7-8.7-3.8-2-8.2-3.1-12.6-3.1z"/><path class="b" d="m122.6 154.6h324.8v19.9h-324.8z"/><path class="b" d="m282 148.7h6c1.4 0 2.9 0.3 4.2 0.8 1.3 0.6 2.5 1.4 3.5 2.4 1 1 1.8 2.2 2.4 3.5 0.5 1.4 0.8 2.8 0.8 4.2h-27.8c0-1.4 0.3-2.8 0.9-4.2 0.5-1.3 1.3-2.5 2.3-3.5 1-1 2.2-1.8 3.6-2.4 1.3-0.5 2.7-0.8 4.1-0.8z"/><path class="c" d="m509.9 475.3q-3.2 3.9-6.6 7.6-3.4 3.8-6.9 7.4-3.6 3.6-7.2 7.1-3.6 3.5-7.4 6.9h-385.6q-3.8-3.4-7.4-6.9-3.6-3.5-7.2-7.1-3.5-3.6-6.9-7.4-3.4-3.7-6.6-7.6z"/><path fill-rule="evenodd" class="d" d="m322.6 375.3q0.6 0.3 1.1 0.8 0.5 0.5 0.8 1.1 0.2 0.6 0.3 1.3v102.6h-71.9v-102.6q0-0.5 0.2-1 0.1-0.6 0.5-1 0.3-0.5 0.8-0.8 0.4-0.3 0.9-0.5 0.2 0 0.3 0 0.1-0.1 0.2-0.1 0.2 0 0.3 0 0.1 0 0.3 0h64.9q0.7 0 1.3 0.2zm-25.9 38.5c0-2.1-0.8-4-2.3-5.4-1.4-1.4-3.3-2.2-5.4-2.2-2 0-3.9 0.8-5.4 2.2-1.4 1.4-2.2 3.3-2.2 5.4v11.9c0 1.6 0.5 3.1 1.4 4.4 1 1.3 2.3 2.3 3.8 2.8 1.5 0.5 3.2 0.5 4.7 0.1 1.5-0.5 2.9-1.4 3.9-2.7q0.3-0.5 0.6-1.1 0.3-0.5 0.5-1.1 0.2-0.6 0.3-1.2 0.1-0.6 0.1-1.2z"/><path class="c" d="m252.7 477.8v9.9q0 0.4 0.1 0.7 0.2 0.4 0.4 0.7 0.3 0.2 0.7 0.4 0.3 0.1 0.7 0.1h68.4q0.4 0 0.8-0.1 0.3-0.2 0.6-0.4 0.3-0.3 0.4-0.7 0.2-0.3 0.2-0.7v-9.9z"/><path class="c" d="m428.8 215h-277.5c-1.2 0-2.4 0.3-3.5 0.7-1.1 0.5-2 1.1-2.9 2-0.8 0.8-1.5 1.8-1.9 2.9-0.5 1.1-0.7 2.2-0.7 3.4v187.3c0 1.2 0.2 2.3 0.7 3.4 0.4 1.1 1.1 2.1 1.9 2.9 0.9 0.9 1.8 1.5 2.9 2 1.1 0.4 2.3 0.7 3.5 0.7h277.5c1.2 0 2.3-0.3 3.4-0.7 1.1-0.5 2.1-1.1 2.9-2 0.9-0.8 1.5-1.8 2-2.9 0.4-1.1 0.7-2.2 0.7-3.4v-187.3c0-1.2-0.3-2.3-0.7-3.4-0.5-1.1-1.1-2.1-2-2.9-0.8-0.9-1.8-1.5-2.9-2-1.1-0.4-2.2-0.7-3.4-0.7z"/><path class="e" d="m425.5 221.5h-272.9q-1 0-1.9 0.4-0.8 0.4-1.5 1-0.7 0.7-1.1 1.6-0.3 0.9-0.3 1.8v182.7q0 0.9 0.3 1.8 0.4 0.9 1.1 1.6 0.7 0.6 1.6 1 0.8 0.4 1.8 0.4h272.9q0.9 0 1.8-0.4 0.9-0.4 1.6-1 0.6-0.7 1-1.6 0.4-0.9 0.4-1.8v-182.7q0-0.9-0.4-1.8-0.4-0.9-1-1.6-0.7-0.6-1.6-1-0.9-0.4-1.8-0.4z"/><path class="d" d="m376.2 489.5l-2.5-12q-0.1-0.4-0.2-0.7-0.2-0.3-0.4-0.6-0.3-0.3-0.6-0.5-0.3-0.2-0.6-0.4-0.2 0-0.3 0-0.1-0.1-0.3-0.1-0.1 0-0.2 0-0.2-0.1-0.3-0.1h-157.3q-0.1 0-0.3 0.1-0.1 0-0.2 0-0.2 0-0.3 0.1-0.1 0-0.3 0-0.3 0.2-0.6 0.4-0.3 0.2-0.6 0.5-0.2 0.3-0.4 0.6-0.2 0.3-0.2 0.7l-2.5 12q-0.2 0.6 0 1.3 0.1 0.7 0.6 1.2 0.4 0.5 1 0.8 0.6 0.3 1.3 0.3h162.3q0.3 0 0.7-0.1 0.3-0.1 0.6-0.2 0.3-0.2 0.6-0.4 0.2-0.2 0.4-0.4 0.2-0.3 0.4-0.6 0.1-0.3 0.2-0.6 0.1-0.3 0.1-0.7 0-0.3-0.1-0.6z"/><path class="c" d="m215.1 477.3h4.1c0.2 0 0.4 0.2 0.4 0.5v2c0 0.3-0.2 0.5-0.4 0.5h-4.1c-0.2 0-0.5-0.2-0.5-0.5v-2c0-0.3 0.3-0.5 0.5-0.5z"/><path class="c" d="m225.1 477.3h4.1c0.2 0 0.4 0.2 0.4 0.5v2c0 0.3-0.2 0.5-0.4 0.5h-4.1c-0.2 0-0.5-0.2-0.5-0.5v-2c0-0.3 0.3-0.5 0.5-0.5z"/><path class="c" d="m235.1 477.3h4.1c0.2 0 0.4 0.2 0.4 0.5v2c0 0.3-0.2 0.5-0.4 0.5h-4.1c-0.2 0-0.5-0.2-0.5-0.5v-2c0-0.3 0.3-0.5 0.5-0.5z"/><path class="c" d="m245.1 477.3h4.1c0.2 0 0.4 0.2 0.4 0.5v2c0 0.3-0.2 0.5-0.4 0.5h-4.1c-0.2 0-0.5-0.2-0.5-0.5v-2c0-0.3 0.3-0.5 0.5-0.5z"/><path class="c" d="m255.1 477.3h4.1c0.2 0 0.4 0.2 0.4 0.5v2c0 0.3-0.2 0.5-0.4 0.5h-4.1c-0.2 0-0.5-0.2-0.5-0.5v-2c0-0.3 0.3-0.5 0.5-0.5z"/><path class="c" d="m265.1 477.3h4.1c0.2 0 0.4 0.2 0.4 0.5v2c0 0.3-0.2 0.5-0.4 0.5h-4.1c-0.2 0-0.5-0.2-0.5-0.5v-2c0-0.3 0.3-0.5 0.5-0.5z"/><path class="c" d="m275.1 477.3h4.1c0.2 0 0.4 0.2 0.4 0.5v2c0 0.3-0.2 0.5-0.4 0.5h-4.1c-0.2 0-0.5-0.2-0.5-0.5v-2c0-0.3 0.3-0.5 0.5-0.5z"/><path class="c" d="m285.1 477.3h4.1c0.2 0 0.4 0.2 0.4 0.5v2c0 0.3-0.2 0.5-0.4 0.5h-4.1c-0.2 0-0.5-0.2-0.5-0.5v-2c0-0.3 0.3-0.5 0.5-0.5z"/><path class="c" d="m295.1 477.3h4.1c0.2 0 0.4 0.2 0.4 0.5v2c0 0.3-0.2 0.5-0.4 0.5h-4.1c-0.2 0-0.5-0.2-0.5-0.5v-2c0-0.3 0.3-0.5 0.5-0.5z"/><path class="c" d="m305.1 477.3h4.1c0.2 0 0.4 0.2 0.4 0.5v2c0 0.3-0.2 0.5-0.4 0.5h-4.1c-0.2 0-0.5-0.2-0.5-0.5v-2c0-0.3 0.3-0.5 0.5-0.5z"/><path class="c" d="m315.1 477.3h4.1c0.2 0 0.4 0.2 0.4 0.5v2c0 0.3-0.2 0.5-0.4 0.5h-4.1c-0.2 0-0.5-0.2-0.5-0.5v-2c0-0.3 0.3-0.5 0.5-0.5z"/><path class="c" d="m325.1 477.3h4.1c0.2 0 0.4 0.2 0.4 0.5v2c0 0.3-0.2 0.5-0.4 0.5h-4.1c-0.2 0-0.5-0.2-0.5-0.5v-2c0-0.3 0.3-0.5 0.5-0.5z"/><path class="c" d="m335.1 477.3h4.1c0.2 0 0.4 0.2 0.4 0.5v2c0 0.3-0.2 0.5-0.4 0.5h-4.1c-0.2 0-0.5-0.2-0.5-0.5v-2c0-0.3 0.3-0.5 0.5-0.5z"/><path class="c" d="m345.1 477.3h4.1c0.2 0 0.4 0.2 0.4 0.5v2c0 0.3-0.2 0.5-0.4 0.5h-4.1c-0.2 0-0.5-0.2-0.5-0.5v-2c0-0.3 0.3-0.5 0.5-0.5z"/><path class="c" d="m355.1 477.3h4.1c0.2 0 0.4 0.2 0.4 0.5v2c0 0.3-0.2 0.5-0.4 0.5h-4.1c-0.2 0-0.5-0.2-0.5-0.5v-2c0-0.3 0.3-0.5 0.5-0.5z"/><path class="c" d="m365.1 477.3h4.1c0.2 0 0.4 0.2 0.4 0.5v2c0 0.3-0.2 0.5-0.4 0.5h-4.1c-0.2 0-0.5-0.2-0.5-0.5v-2c0-0.3 0.3-0.5 0.5-0.5z"/><path class="c" d="m215 482.3h4c0.3 0 0.5 0.2 0.5 0.5v2c0 0.3-0.2 0.5-0.5 0.5h-4c-0.3 0-0.5-0.2-0.5-0.5v-2c0-0.3 0.2-0.5 0.5-0.5z"/><path class="c" d="m225 482.3h4c0.3 0 0.5 0.2 0.5 0.5v2c0 0.3-0.2 0.5-0.5 0.5h-4c-0.3 0-0.5-0.2-0.5-0.5v-2c0-0.3 0.2-0.5 0.5-0.5z"/><path class="c" d="m235 482.3h4c0.3 0 0.5 0.2 0.5 0.5v2c0 0.3-0.2 0.5-0.5 0.5h-4c-0.3 0-0.5-0.2-0.5-0.5v-2c0-0.3 0.2-0.5 0.5-0.5z"/><path class="c" d="m245 482.3h4c0.3 0 0.5 0.2 0.5 0.5v2c0 0.3-0.2 0.5-0.5 0.5h-4c-0.3 0-0.5-0.2-0.5-0.5v-2c0-0.3 0.2-0.5 0.5-0.5z"/><path class="c" d="m255 482.3h4c0.3 0 0.5 0.2 0.5 0.5v2c0 0.3-0.2 0.5-0.5 0.5h-4c-0.3 0-0.5-0.2-0.5-0.5v-2c0-0.3 0.2-0.5 0.5-0.5z"/><path class="c" d="m265 482.3h4c0.3 0 0.5 0.2 0.5 0.5v2c0 0.3-0.2 0.5-0.5 0.5h-4c-0.3 0-0.5-0.2-0.5-0.5v-2c0-0.3 0.2-0.5 0.5-0.5z"/><path class="c" d="m275 482.3h4c0.3 0 0.5 0.2 0.5 0.5v2c0 0.3-0.2 0.5-0.5 0.5h-4c-0.3 0-0.5-0.2-0.5-0.5v-2c0-0.3 0.2-0.5 0.5-0.5z"/><path class="c" d="m285 482.3h4c0.3 0 0.5 0.2 0.5 0.5v2c0 0.3-0.2 0.5-0.5 0.5h-4c-0.3 0-0.5-0.2-0.5-0.5v-2c0-0.3 0.2-0.5 0.5-0.5z"/><path class="c" d="m295 482.3h4c0.3 0 0.5 0.2 0.5 0.5v2c0 0.3-0.2 0.5-0.5 0.5h-4c-0.3 0-0.5-0.2-0.5-0.5v-2c0-0.3 0.2-0.5 0.5-0.5z"/><path class="c" d="m305 482.3h4c0.3 0 0.5 0.2 0.5 0.5v2c0 0.3-0.2 0.5-0.5 0.5h-4c-0.3 0-0.5-0.2-0.5-0.5v-2c0-0.3 0.2-0.5 0.5-0.5z"/><path class="c" d="m315 482.3h4c0.3 0 0.5 0.2 0.5 0.5v2c0 0.3-0.2 0.5-0.5 0.5h-4c-0.3 0-0.5-0.2-0.5-0.5v-2c0-0.3 0.2-0.5 0.5-0.5z"/><path class="c" d="m325 482.3h4c0.3 0 0.5 0.2 0.5 0.5v2c0 0.3-0.2 0.5-0.5 0.5h-4c-0.3 0-0.5-0.2-0.5-0.5v-2c0-0.3 0.2-0.5 0.5-0.5z"/><path class="c" d="m335 482.3h4c0.3 0 0.5 0.2 0.5 0.5v2c0 0.3-0.2 0.5-0.5 0.5h-4c-0.3 0-0.5-0.2-0.5-0.5v-2c0-0.3 0.2-0.5 0.5-0.5z"/><path class="c" d="m345 482.3h4c0.3 0 0.5 0.2 0.5 0.5v2c0 0.3-0.2 0.5-0.5 0.5h-4c-0.3 0-0.5-0.2-0.5-0.5v-2c0-0.3 0.2-0.5 0.5-0.5z"/><path class="c" d="m355 482.3h4c0.3 0 0.5 0.2 0.5 0.5v2c0 0.3-0.2 0.5-0.5 0.5h-4c-0.3 0-0.5-0.2-0.5-0.5v-2c0-0.3 0.2-0.5 0.5-0.5z"/><path class="c" d="m365 482.3h4c0.3 0 0.5 0.2 0.5 0.5v2c0 0.3-0.2 0.5-0.5 0.5h-4c-0.3 0-0.5-0.2-0.5-0.5v-2c0-0.3 0.2-0.5 0.5-0.5z"/><path class="c" d="m263 488.3h39c0.3 0 0.5 0.2 0.5 0.5v2c0 0.3-0.2 0.5-0.5 0.5h-39c-0.3 0-0.5-0.2-0.5-0.5v-2c0-0.3 0.2-0.5 0.5-0.5z"/><path class="c" d="m412.7 246.7h-255.3q-0.4 0-0.7-0.3-0.3-0.3-0.3-0.7 0-0.5 0.3-0.7 0.3-0.3 0.7-0.4h255.3q0.5 0.1 0.8 0.4 0.2 0.2 0.2 0.7 0 0.4-0.2 0.7-0.3 0.3-0.8 0.3z"/><path class="c" d="m174.8 239.5c-3.3 0-5.9-2.8-5.9-6.1 0-3.4 2.6-6.1 5.9-6.1 3.3 0 6 2.7 6 6.1 0 3.3-2.7 6.1-6 6.1z"/><path class="c" d="m195.4 239.5c-3.3 0-6-2.8-6-6.1 0-3.4 2.7-6.1 6-6.1 3.3 0 5.9 2.7 5.9 6.1 0 3.3-2.6 6.1-5.9 6.1z"/><path class="c" d="m215.9 239.5c-3.3 0-5.9-2.8-5.9-6.1 0-3.4 2.6-6.1 5.9-6.1 3.3 0 6 2.7 6 6.1 0 3.3-2.7 6.1-6 6.1z"/><path class="c" d="m400.4 228.8h-14.6c-0.3 0-0.6 0.1-0.8 0.3-0.2 0.2-0.3 0.5-0.3 0.8 0 0.3 0.1 0.6 0.3 0.8 0.2 0.2 0.5 0.3 0.8 0.3h14.6c0.3 0 0.5-0.1 0.7-0.3 0.2-0.2 0.4-0.5 0.4-0.8 0-0.3-0.2-0.6-0.4-0.8-0.2-0.2-0.4-0.3-0.7-0.3z"/><path class="c" d="m400.4 232.9h-14.6c-0.3 0.1-0.6 0.2-0.8 0.4-0.2 0.2-0.3 0.5-0.3 0.8 0 0.2 0.1 0.5 0.3 0.7 0.2 0.2 0.5 0.4 0.8 0.4h14.6c0.3 0 0.5-0.2 0.7-0.4 0.2-0.2 0.4-0.5 0.4-0.7 0-0.3-0.2-0.6-0.4-0.8-0.2-0.2-0.4-0.3-0.7-0.4z"/><path class="c" d="m400.4 237.1h-14.6c-0.3 0-0.6 0.1-0.8 0.3-0.2 0.2-0.3 0.5-0.3 0.8 0 0.3 0.1 0.6 0.3 0.8 0.2 0.2 0.5 0.3 0.8 0.3h14.6c0.3 0 0.5-0.1 0.7-0.3 0.2-0.2 0.4-0.5 0.4-0.8 0-0.3-0.2-0.6-0.4-0.8-0.2-0.2-0.4-0.3-0.7-0.3z"/><path class="f" d="m174.2 270.3h5.2c1.6 0 2.9 1.3 2.9 2.9 0 1.5-1.3 2.8-2.9 2.8h-5.2c-1.6 0-2.9-1.3-2.9-2.8 0-1.6 1.3-2.9 2.9-2.9z"/><path class="f" d="m234.2 270.3h5.2c1.6 0 2.9 1.3 2.9 2.9 0 1.5-1.3 2.8-2.9 2.8h-5.2c-1.6 0-2.9-1.3-2.9-2.8 0-1.6 1.3-2.9 2.9-2.9z"/><path class="f" d="m251.2 270.3h5.2c1.6 0 2.9 1.3 2.9 2.9 0 1.5-1.3 2.8-2.9 2.8h-5.2c-1.6 0-2.9-1.3-2.9-2.8 0-1.6 1.3-2.9 2.9-2.9z"/><path class="f" d="m190.5 269.8h32.6c1.6 0 2.9 1.3 2.9 2.9 0 1.6-1.3 2.9-2.9 2.9h-32.6c-1.6 0-2.9-1.3-2.9-2.9 0-1.6 1.3-2.9 2.9-2.9z"/><path class="f" d="m270.5 269.8h32.6c1.6 0 2.9 1.3 2.9 2.9 0 1.6-1.3 2.9-2.9 2.9h-32.6c-1.6 0-2.9-1.3-2.9-2.9 0-1.6 1.3-2.9 2.9-2.9z"/><path class="f" d="m190.2 283.3h5.2c1.6 0 2.9 1.3 2.9 2.9 0 1.5-1.3 2.8-2.9 2.8h-5.2c-1.6 0-2.9-1.3-2.9-2.8 0-1.6 1.3-2.9 2.9-2.9z"/><path class="f" d="m250.2 283.3h5.2c1.6 0 2.9 1.3 2.9 2.9 0 1.5-1.3 2.8-2.9 2.8h-5.2c-1.6 0-2.9-1.3-2.9-2.8 0-1.6 1.3-2.9 2.9-2.9z"/><path class="f" d="m267.2 283.3h5.2c1.6 0 2.9 1.3 2.9 2.9 0 1.5-1.3 2.8-2.9 2.8h-5.2c-1.6 0-2.9-1.3-2.9-2.8 0-1.6 1.3-2.9 2.9-2.9z"/><path class="f" d="m206.5 282.8h32.6c1.6 0 2.9 1.3 2.9 2.9 0 1.6-1.3 2.9-2.9 2.9h-32.6c-1.6 0-2.9-1.3-2.9-2.9 0-1.6 1.3-2.9 2.9-2.9z"/><path class="f" d="m286.5 282.8h32.6c1.6 0 2.9 1.3 2.9 2.9 0 1.6-1.3 2.9-2.9 2.9h-32.6c-1.6 0-2.9-1.3-2.9-2.9 0-1.6 1.3-2.9 2.9-2.9z"/><path class="f" d="m206.2 296.3h5.2c1.6 0 2.9 1.3 2.9 2.9 0 1.5-1.3 2.8-2.9 2.8h-5.2c-1.6 0-2.9-1.3-2.9-2.8 0-1.6 1.3-2.9 2.9-2.9z"/><path class="f" d="m266.2 296.3h5.2c1.6 0 2.9 1.3 2.9 2.9 0 1.5-1.3 2.8-2.9 2.8h-5.2c-1.6 0-2.9-1.3-2.9-2.8 0-1.6 1.3-2.9 2.9-2.9z"/><path class="f" d="m283.2 296.3h5.2c1.6 0 2.9 1.3 2.9 2.9 0 1.5-1.3 2.8-2.9 2.8h-5.2c-1.6 0-2.9-1.3-2.9-2.8 0-1.6 1.3-2.9 2.9-2.9z"/><path class="f" d="m222.5 295.8h32.6c1.6 0 2.9 1.3 2.9 2.9 0 1.6-1.3 2.9-2.9 2.9h-32.6c-1.6 0-2.9-1.3-2.9-2.9 0-1.6 1.3-2.9 2.9-2.9z"/><path class="f" d="m302.5 295.8h32.6c1.6 0 2.9 1.3 2.9 2.9 0 1.6-1.3 2.9-2.9 2.9h-32.6c-1.6 0-2.9-1.3-2.9-2.9 0-1.6 1.3-2.9 2.9-2.9z"/><path class="f" d="m222.2 309.3h5.2c1.6 0 2.9 1.3 2.9 2.9 0 1.5-1.3 2.8-2.9 2.8h-5.2c-1.6 0-2.9-1.3-2.9-2.8 0-1.6 1.3-2.9 2.9-2.9z"/><path class="f" d="m282.2 309.3h5.2c1.6 0 2.9 1.3 2.9 2.9 0 1.5-1.3 2.8-2.9 2.8h-5.2c-1.6 0-2.9-1.3-2.9-2.8 0-1.6 1.3-2.9 2.9-2.9z"/><path class="f" d="m299.2 309.3h5.2c1.6 0 2.9 1.3 2.9 2.9 0 1.5-1.3 2.8-2.9 2.8h-5.2c-1.6 0-2.9-1.3-2.9-2.8 0-1.6 1.3-2.9 2.9-2.9z"/><path class="f" d="m238.5 308.8h32.6c1.6 0 2.9 1.3 2.9 2.9 0 1.6-1.3 2.9-2.9 2.9h-32.6c-1.6 0-2.9-1.3-2.9-2.9 0-1.6 1.3-2.9 2.9-2.9z"/><path class="f" d="m234.2 361h5.2c1.6 0 2.9 1.3 2.9 2.8 0 1.6-1.3 2.9-2.9 2.9h-5.2c-1.6 0-2.9-1.3-2.9-2.9 0-1.5 1.3-2.8 2.9-2.8z"/><path class="f" d="m251.2 361h5.2c1.6 0 2.9 1.3 2.9 2.8 0 1.6-1.3 2.9-2.9 2.9h-5.2c-1.6 0-2.9-1.3-2.9-2.9 0-1.5 1.3-2.8 2.9-2.8z"/><path class="f" d="m270.5 361.4h32.6c1.6 0 2.9 1.3 2.9 2.9 0 1.6-1.3 2.9-2.9 2.9h-32.6c-1.6 0-2.9-1.3-2.9-2.9 0-1.6 1.3-2.9 2.9-2.9z"/><path class="f" d="m174.2 361h5.2c1.6 0 2.9 1.3 2.9 2.8 0 1.6-1.3 2.9-2.9 2.9h-5.2c-1.6 0-2.9-1.3-2.9-2.9 0-1.5 1.3-2.8 2.9-2.8z"/><path class="f" d="m190.5 361.4h32.6c1.6 0 2.9 1.3 2.9 2.9 0 1.6-1.3 2.9-2.9 2.9h-32.6c-1.6 0-2.9-1.3-2.9-2.9 0-1.6 1.3-2.9 2.9-2.9z"/><path class="f" d="m190.2 348h5.2c1.6 0 2.9 1.3 2.9 2.8 0 1.6-1.3 2.9-2.9 2.9h-5.2c-1.6 0-2.9-1.3-2.9-2.9 0-1.5 1.3-2.8 2.9-2.8z"/><path class="f" d="m250.2 348h5.2c1.6 0 2.9 1.3 2.9 2.8 0 1.6-1.3 2.9-2.9 2.9h-5.2c-1.6 0-2.9-1.3-2.9-2.9 0-1.5 1.3-2.8 2.9-2.8z"/><path class="f" d="m267.2 348h5.2c1.6 0 2.9 1.3 2.9 2.8 0 1.6-1.3 2.9-2.9 2.9h-5.2c-1.6 0-2.9-1.3-2.9-2.9 0-1.5 1.3-2.8 2.9-2.8z"/><path class="f" d="m206.5 348.4h32.6c1.6 0 2.9 1.3 2.9 2.9 0 1.6-1.3 2.9-2.9 2.9h-32.6c-1.6 0-2.9-1.3-2.9-2.9 0-1.6 1.3-2.9 2.9-2.9z"/><path class="f" d="m206.2 335h5.2c1.6 0 2.9 1.3 2.9 2.8 0 1.6-1.3 2.9-2.9 2.9h-5.2c-1.6 0-2.9-1.3-2.9-2.9 0-1.5 1.3-2.8 2.9-2.8z"/><path class="f" d="m266.2 335h5.2c1.6 0 2.9 1.3 2.9 2.8 0 1.6-1.3 2.9-2.9 2.9h-5.2c-1.6 0-2.9-1.3-2.9-2.9 0-1.5 1.3-2.8 2.9-2.8z"/><path class="f" d="m283.2 335h5.2c1.6 0 2.9 1.3 2.9 2.8 0 1.6-1.3 2.9-2.9 2.9h-5.2c-1.6 0-2.9-1.3-2.9-2.9 0-1.5 1.3-2.8 2.9-2.8z"/><path class="f" d="m222.5 335.4h32.6c1.6 0 2.9 1.3 2.9 2.9 0 1.6-1.3 2.9-2.9 2.9h-32.6c-1.6 0-2.9-1.3-2.9-2.9 0-1.6 1.3-2.9 2.9-2.9z"/><path class="f" d="m222.2 322h5.2c1.6 0 2.9 1.3 2.9 2.8 0 1.6-1.3 2.9-2.9 2.9h-5.2c-1.6 0-2.9-1.3-2.9-2.9 0-1.5 1.3-2.8 2.9-2.8z"/><path class="f" d="m282.2 322h5.2c1.6 0 2.9 1.3 2.9 2.8 0 1.6-1.3 2.9-2.9 2.9h-5.2c-1.6 0-2.9-1.3-2.9-2.9 0-1.5 1.3-2.8 2.9-2.8z"/><path class="f" d="m299.2 322h5.2c1.6 0 2.9 1.3 2.9 2.8 0 1.6-1.3 2.9-2.9 2.9h-5.2c-1.6 0-2.9-1.3-2.9-2.9 0-1.5 1.3-2.8 2.9-2.8z"/><path class="f" d="m238.5 322.4h32.6c1.6 0 2.9 1.3 2.9 2.9 0 1.6-1.3 2.9-2.9 2.9h-32.6c-1.6 0-2.9-1.3-2.9-2.9 0-1.6 1.3-2.9 2.9-2.9z"/><path class="c" d="m415.8 548.8q-0.9 0.4-1.8 0.9c-15.8 7.9-28.5 12.4-45.8 17.3-1.4-16.3-2.8-45-4.2-62.7-0.4-4.6-0.7-8.5-1.1-11.2q0-0.6-0.1-1.1 0-0.5-0.2-1.1-0.1-0.5-0.2-1-0.2-0.6-0.4-1.1l0.1 4.3 0.2 11.2 0.8 64.1q-8 2.1-16.2 3.8-8.2 1.7-16.4 2.8-8.3 1.2-16.6 1.9-8.3 0.8-16.6 1-1.8 0-3.4 0.1-0.6 0-1.2 0-1.8 0-3.7 0-8.8 0-17.5-0.5-8.8-0.5-17.5-1.6-8.7-1.1-17.4-2.6-8.6-1.6-17.1-3.7c0.4-16.2 0.9-44.5 1.4-65.3 0.1-4.1 0.2-7.9 0.3-11.2 0.2-7.2 0.4-12.3 0.6-14.1q-0.1 0.1-0.1 0.3-0.1 0.1-0.1 0.2-0.1 0.1-0.1 0.2-0.1 0.2-0.1 0.3-0.4 1.6-0.6 3.2-0.3 1.7-0.6 3.3-0.2 1.6-0.4 3.3-0.2 1.6-0.3 3.3c-0.4 3.3-0.7 7.1-1.1 11.2-1.8 21.6-3.8 51-5.8 63.5q-4.4-1.2-8.8-2.6-4.5-1.3-8.8-2.8-4.4-1.6-8.7-3.2-4.4-1.6-8.6-3.4-9-3.8-17.7-8.1c1.1-7.2 2.2-15.3 3.4-23.7 0.9-6.4 1.9-13.1 2.9-19.7 1.5-10.2 3-20.2 4.6-29 2.2-12.8 4.6-23.1 6.9-27.9 2.2-4.5 4.4-8.9 6.5-13.1q1.2-2.3 2.2-4.4 0.3-0.5 0.5-1 2.3-4.6 4.5-8.6 1.8-3.5 3.4-6.5c2.7-4.9 4.9-8.8 6.6-11.3q2.5-3.9 5.8-7.3 3.2-3.4 6.9-6.3 3.7-2.8 7.9-5 4.2-2.1 8.6-3.6l0.3-0.1 0.2 0.1 20.5-6.2 3-1 2-0.6 7.1-5.4 3.8-2.9 3.6-2.7 7.1-5.4 43.7 2.7 8.5 20.5 19.1 6.9 0.3-0.1 0.3-0.1h0.3q4.5 1.5 8.6 3.6 4.2 2.2 7.9 5 3.8 2.9 7 6.3 3.2 3.4 5.8 7.4c0.9 1.4 2.1 3.2 3.3 5.5q1.7 2.8 3.6 6.5c1.9 3.4 3.9 7.3 6.1 11.5q0.7 1.3 1.4 2.8 1.3 2.6 2.7 5.4c2.1 4.2 4.3 8.6 6.5 13.2 1.9 3.9 3.9 11.9 5.8 22.1 1.5 8.5 3.1 18.6 4.6 29 2 13.5-0.1 29.7 1.7 42.1q0.1 1.2 0.3 2.4z"/><path class="g" d="m289.6 339.7c-28.1 0-50.8-22.7-50.8-50.8 0-28.1 22.7-50.8 50.8-50.8 28.1 0 50.9 22.7 50.9 50.8 0 28.1-22.8 50.8-50.9 50.8z"/><path class="d" d="m373.5 221.5q-0.4-0.9-0.9-1.7-0.4-0.9-0.9-1.7-0.5-0.8-1.1-1.6-0.5-0.7-1.1-1.5c-7.7-9.4-21.8-13.6-36.2-2.4q-1-0.2-2.1-0.3-1-0.1-2.1 0-1.1 0-2.1 0.2-1 0.2-2 0.6-0.5 0.2-1 0.4-0.4 0.2-0.9 0.4-0.4 0.3-0.8 0.5-0.5 0.3-0.9 0.6-0.8 0.7-1.5 1.4-0.7 0.7-1.4 1.5-0.6 0.9-1.1 1.8-0.5 0.9-0.9 1.8-0.2 0.5-0.4 1-0.2 0.6-0.3 1.1-0.1 0.5-0.2 1.1-0.1 0.5-0.2 1-1.3-0.6-2.7-1.3-1.4-0.6-2.8-1.1-1.4-0.5-2.8-1-1.5-0.4-2.9-0.8-3.6-0.9-7.3-1.3-3.6-0.5-7.3-0.5-3.7 0-7.3 0.5-3.7 0.4-7.3 1.3-1.1 0.3-2.2 0.7-1.2 0.3-2.3 0.8-1.1 0.4-2.1 0.9-1.1 0.5-2.1 1.1c-4.7 2.7-7.4 6.1-7.9 9.9-6.7 0.4-13.8 3.9-19 9.7q-0.9 1-1.7 2.1-1.6 2.1-2.9 4.5-1.2 2.4-2.1 4.9-0.9 2.6-1.3 5.3-0.4 2.6-0.4 5.3v1.3h1.3q1.3 0 2.6 0.1 1.3 0.1 2.5 0.4 1.3 0.2 2.6 0.6 1.2 0.4 2.4 0.9 0.8 0.3 1.6 0.7 0.7 0.3 1.5 0.7 0.7 0.4 1.4 0.9 0.7 0.4 1.4 0.9 0.5 0.3 0.9 0.7 0.4 0.3 0.8 0.7 0.5 0.3 0.9 0.7 0.4 0.3 0.8 0.7 0.9 0.9 1.7 1.9 0.9 0.9 1.6 1.9 0.8 1 1.5 2.1 0.7 1.1 1.3 2.2 1.5 2.8 2.6 5.8 1 3 1.6 6.2 0.5 3.1 0.5 6.3-0.1 3.2-0.6 6.4-0.2 0.7-0.3 1.5-0.2 0.7-0.4 1.4-0.2 0.7-0.4 1.4-0.2 0.7-0.4 1.5-0.4 1-0.8 1.9-0.4 1-0.9 2-0.4 0.9-1 1.9-0.5 0.9-1.1 1.8 0 0.1-0.1 0.2-1 1.7-1.9 3.3-0.7 1.2-1.3 2.5-0.4 0.9-0.8 1.8-0.4 0.9-0.8 1.8-0.3 0.9-0.7 1.8-0.3 0.9-0.6 1.8-0.5 1.7-0.9 3.4-0.4 1.6-0.7 3.3-0.3 1.7-0.5 3.5-0.2 1.7-0.3 3.4-0.1 1.8-0.1 3.6 0.1 1.2 0.1 2.4 0.1 1.2 0.2 2.4 0.2 1.1 0.4 2.3 0.1 1.2 0.4 2.3 0.1 0.6 0.2 1.3l0.8 3.2 1.7 7.6 1.2 5.2 1.1 4.9 1.7-2.4c0.5-0.8 1.9-3.2 3.8-6.7 1.3-2.3 2.7-5 4.3-8 2.2-4.1 4.6-8.7 6.9-13.4q1.4-2.8 2.8-5.5c1.7-3.5 3.4-6.8 4.7-9.8 1.3-2.7 2.4-5.1 3.2-7q0.4 1.9 0.6 3.8 0.3 2 0.4 4 0.1 0.3 0.1 0.6v0.8 0.3l1.1 0.1q2.3 0.3 4.6 0.4 2.3 0.1 4.6 0.1 2.3 0.1 4.6 0 2.3-0.1 4.6-0.3 3-0.3 6-0.7 3-0.5 6-1.2 3-0.8 5.9-1.7 2.8-1 5.6-2.1 1.6-0.7 3.2-1.5 1.5-0.8 3-1.8 1.5-0.9 2.9-1.9 1.4-1 2.7-2.1 0.7-0.5 1.3-1.1 0.6-0.5 1.2-1.1 0.6-0.5 1.1-1.1 0.6-0.6 1.1-1.2 0.5-0.6 1.1-1.2 0.7-1 1.4-1.9 0.7-1 1.3-2 0.6-0.9 1.2-2 0.6-1 1.1-2 0.4-0.7 0.7-1.5 0.3-0.7 0.6-1.4 0.3-0.7 0.5-1.4 0.3-0.8 0.5-1.5c3.9-11.6 3.7-26.1-0.6-43.4q0.4-0.1 0.8-0.2 0.5-0.1 0.9-0.3 0.4-0.1 0.8-0.3 0.4-0.2 0.8-0.4c3.1-1.9 5.3-5.7 6-10.3l1 0.3q1.5-0.6 2.8-1.5 1.4-0.8 2.6-1.7 1.3-1 2.5-2.1 1.1-1 2.1-2.2 0.3-0.3 0.5-0.5 0.2-0.3 0.3-0.5 0.2-0.3 0.4-0.5 0.2-0.3 0.4-0.5c4.9-7.3 4.9-15.9 1.8-23.2z"/><path class="h" d="m206.3 475.3l8.5-32.8 7.5 28.3-16 4.5z"/><path class="d" d="m432.4 453.9c-3 41.9 0.1 60.4-16.6 94.9q-5.8 2.8-11.6 5.3-5.8 2.6-11.8 4.8-5.9 2.3-12 4.3-6 2.1-12.2 3.8-2.5 0.7-5.1 1.4-8 2.1-16.2 3.8-8.2 1.7-16.4 2.8-8.3 1.2-16.6 1.9-8.3 0.8-16.6 1-1.8 0-3.4 0.1-0.6 0-1.2 0-1.8 0-3.7 0-8.8 0-17.5-0.5-8.8-0.5-17.5-1.6-8.7-1.1-17.4-2.6-8.6-1.6-17.1-3.7-3.5-0.9-6.8-1.8-4.5-1.2-8.9-2.6-4.5-1.3-8.8-2.8-4.4-1.6-8.7-3.2-4.4-1.6-8.6-3.4-9-3.8-17.7-8.1-2-1-3.9-2c-6.6-11.7-10.4-25.9-10.5-42.9 4.6-29.4 276.7-74.2 286.8-48.9z"/><path class="h" d="m432.4 461.1q0.3-3.9 0.6-8.1c-10.2-25.3-282.3 19.6-286.9 48.9q0.1 4 0.4 7.9c11.1-29 269.6-71.6 285.9-48.7z"/><path fill-rule="evenodd" class="d" d="m169 394.3q-0.1 1-0.5 2-0.4 0.9-1 1.7-0.7 0.7-1.6 1.3-0.8 0.5-1.8 0.7l-25.9 5.9q-1 0.2-2 0.1-1-0.1-2-0.5-0.9-0.4-1.7-1.1-0.7-0.7-1.2-1.6l-13.5-37.9q-0.4 0.3-0.9 0.6-0.4 0.3-0.9 0.6-0.5 0.2-1 0.4-0.6 0.2-1.1 0.3c-2.5 0.5-5.1 0.1-7.3-1.3-2.1-1.3-3.7-3.5-4.2-6-0.6-2.5-0.2-5.1 1.2-7.3 1.4-2.2 3.5-3.7 6-4.3q0.3 0 0.5-0.1 0.2 0 0.4 0 0.2-0.1 0.4-0.1 0.2 0 0.5 0 0.3-0.6 0.7-1.1 0.5-0.6 1-1 0.6-0.4 1.2-0.7 0.6-0.3 1.3-0.5l39.7-8.9q0.2-0.1 0.3-0.1 0.1 0 0.2 0 0.2 0 0.3 0 0.1-0.1 0.2-0.1 1.4 0 2.7 0.4 1.3 0.5 2.3 1.5 0.9 1 1.4 2.3 0.5 1.3 0.4 2.7zm-54.8-30.5q0.4-0.2 0.8-0.4 0.4-0.2 0.7-0.5 0.4-0.2 0.7-0.5l-4.9-8.6q-0.3-0.4-0.4-0.8-0.2-0.4-0.3-0.8-0.1-0.4-0.1-0.8-0.1-0.5-0.1-0.9c-0.1 0-0.2 0-0.4 0-1.8 0.4-3.3 1.5-4.3 3.1-0.9 1.5-1.3 3.4-0.8 5.2 0.4 1.8 1.5 3.3 3 4.3 1.6 1 3.4 1.3 5.2 0.9q0.4-0.1 0.9-0.2z"/><path class="c" d="m156.3 335.3c0.4 5.1-8.2 10.8-19.7 13.1-10.6 2.2-20.1 0.7-22.8-3.3q0.2-0.1 0.5-0.2 0.2-0.1 0.4-0.2 0.2-0.1 0.4-0.1 0.2-0.1 0.5-0.2l39.7-8.9q0.2-0.1 0.3-0.1 0.1 0 0.2 0 0.2 0 0.3 0 0.1-0.1 0.2-0.1z"/><path class="g" d="m128.8 462.9l22.4-11.2-18.6-50.2-4.9-25.4c-0.7-3.2-2.2-6.3-4.4-8.9-2.2-2.5-5-4.4-8.1-5.5-3.2-1.1-6.6-1.4-9.9-0.7-3.3 0.6-6.4 2.1-8.9 4.2-1.9 1.6-3.4 3.6-4.6 5.8-1.1 2.2-1.8 4.5-2 7-0.3 2.4 0 4.9 0.7 7.3 0.7 2.3 1.8 4.5 3.4 6.5l18.2 22.7z"/><path class="c" d="m151.2 442.4l-29.8 14.9 22.6 70.8c0.8 2.6 1.9 5 3.4 7.2 1.4 2.3 3.1 4.3 5 6.1 2 1.8 4.2 3.4 6.5 4.6 2.4 1.3 4.8 2.2 7.4 2.8 3.2 0.8 6.5 1.1 9.8 0.8 3.2-0.3 6.4-1.1 9.4-2.3 3-1.3 5.8-3 8.3-5.2 2.5-2.1 4.6-4.6 6.3-7.4l59.9-102.8c2.1-3.5 3.5-7.3 4.1-11.4 0.7-4 0.5-8.2-0.5-12.1-0.9-4-2.6-7.8-5-11.1-2.3-3.3-5.3-6.2-8.8-8.3-3.8-2.4-8-4-12.4-4.6-4.3-0.7-8.8-0.4-13.1 0.8-4.3 1.2-8.2 3.3-11.7 6.2-3.4 2.8-6.1 6.3-8.1 10.3l-36.6 78z"/><path class="e" d="m142 378.4q-0.1 0-0.1 0 0 0 0 0 0 0-0.1 0 0 0 0 0l-6.5-2.2q-0.1-0.1-0.2-0.2-0.1-0.1-0.1-0.2-0.1-0.1 0-0.2 0-0.1 0.1-0.2l4.8-5.3q0.2-0.2 0.4-0.2 0.2 0 0.3 0.2 0.2 0.1 0.2 0.3 0 0.2-0.1 0.4l-4.3 4.7 5.7 2q0.2 0 0.3 0.2 0.1 0.1 0.1 0.3-0.1 0.2-0.2 0.3-0.2 0.1-0.3 0.1z"/><path class="e" d="m150.9 376.6q-0.2 0-0.3-0.1-0.1-0.1-0.2-0.2 0-0.1 0-0.3 0-0.1 0.1-0.2l4.4-4.3-5.9-2.4q-0.2-0.1-0.2-0.3-0.1-0.2-0.1-0.4 0.1-0.2 0.3-0.2 0.2-0.1 0.4 0l6.6 2.7q0.1 0 0.2 0.1 0.1 0.1 0.1 0.2 0 0.2 0 0.3 0 0.1-0.1 0.2l-5 4.8q0 0 0 0-0.1 0.1-0.1 0.1-0.1 0-0.1 0-0.1 0-0.1 0z"/><path class="e" d="m143.3 381.5q0 0 0 0 0 0 0 0-0.1 0-0.1 0 0 0 0 0-0.1-0.1-0.2-0.1-0.1-0.1-0.1-0.2-0.1-0.1-0.1-0.2 0-0.1 0.1-0.1l4.6-15q0-0.2 0.2-0.3 0.2-0.1 0.4-0.1 0.2 0.1 0.3 0.3 0.1 0.2 0 0.3l-4.6 15q0 0.1-0.1 0.2 0 0.1-0.1 0.1 0 0-0.1 0.1-0.1 0-0.2 0z"/></svg>